<svg version="1.2" xmlns="http://www.w3.org/2000/svg" viewBox="0 0 32 32" width="32" height="32">
	<title>red-search-icon</title>
	<style>
		.s0 { fill: #5dd37c } 
		.s1 { fill: #ffffff;stroke: #ffffff;stroke-width: .5 } 
	</style>
	<path fill-rule="evenodd" class="s0" d="m16 32c-8.8 0-16-7.2-16-16 0-8.8 7.2-16 16-16 8.8 0 16 7.2 16 16 0 8.8-7.2 16-16 16z"/>
	<path class="s1" d="m15 10.7c0.8 0 1.6 0.2 2.3 0.6 0.6 0.5 1.2 1.1 1.5 1.8 0.4 0.7 0.5 1.6 0.4 2.4-0.1 0.8-0.4 1.5-0.9 2.2l2.9 2.9q0.1 0.1 0.1 0.3 0 0.1-0.1 0.3-0.1 0.1-0.3 0.1-0.1 0-0.3-0.1l-2.9-2.9q-0.8 0.7-1.9 0.9-1 0.2-2-0.1-1-0.3-1.8-1-0.7-0.7-1.1-1.7-0.3-1-0.2-2 0.2-1.1 0.8-1.9 0.6-0.9 1.5-1.4 0.9-0.4 2-0.4zm0 0.9q-0.7 0-1.3 0.2-0.7 0.3-1.1 0.8-0.5 0.4-0.8 1.1-0.2 0.6-0.2 1.3 0 0.6 0.2 1.3 0.3 0.6 0.8 1.1 0.4 0.5 1.1 0.7 0.6 0.3 1.3 0.3c0.9 0 1.7-0.4 2.4-1 0.6-0.7 1-1.5 1-2.4 0-0.9-0.4-1.8-1-2.4-0.7-0.7-1.5-1-2.4-1z"/>
</svg>